<svg width="526" height="115" viewBox="0 0 526 115" fill="none" xmlns="http://www.w3.org/2000/svg">
<g clip-path="url(#clip0_5_350)">
<path fill-rule="evenodd" clip-rule="evenodd" d="M85.23 31.4514C85.23 36.9434 80.771 41.4014 75.279 41.4014C69.787 41.4014 65.329 36.9434 65.329 31.4514C65.329 25.9594 69.787 21.5004 75.279 21.5004C80.771 21.5004 85.23 25.9594 85.23 31.4514Z" fill="#CA7F2E"/>
<path fill-rule="evenodd" clip-rule="evenodd" d="M60.707 26.4754V36.4264C60.707 39.1724 58.478 41.4014 55.732 41.4014H45.781C43.035 41.4014 40.806 39.1724 40.806 36.4264V26.4754C40.806 23.7294 43.035 21.5004 45.781 21.5004H55.732C58.478 21.5004 60.707 23.7294 60.707 26.4754Z" fill="#004F4F"/>
<path d="M35.901 21.5004H16V41.4014H35.901V21.5004Z" fill="#772623"/>
<path fill-rule="evenodd" clip-rule="evenodd" d="M85.23 56.9176C85.23 62.4096 80.771 66.8676 75.279 66.8676C69.787 66.8676 65.329 62.4096 65.329 56.9176C65.329 51.4256 69.787 46.9666 75.279 46.9666C80.771 46.9666 85.23 51.4256 85.23 56.9176Z" fill="#F1A455"/>
<path fill-rule="evenodd" clip-rule="evenodd" d="M60.707 51.9416V61.8926C60.707 64.6386 58.478 66.8676 55.732 66.8676H45.781C43.035 66.8676 40.806 64.6386 40.806 61.8926V51.9416C40.806 49.1956 43.035 46.9666 45.781 46.9666H55.732C58.478 46.9666 60.707 49.1956 60.707 51.9416Z" fill="#2E7D82"/>
<path d="M35.901 46.9666H16V66.8676H35.901V46.9666Z" fill="#A05551"/>
<path fill-rule="evenodd" clip-rule="evenodd" d="M85.23 82.7611C85.23 88.2531 80.771 92.7111 75.279 92.7111C69.787 92.7111 65.329 88.2531 65.329 82.7611C65.329 77.2691 69.787 72.8101 75.279 72.8101C80.771 72.8101 85.23 77.2691 85.23 82.7611Z" fill="#F7CC82"/>
<path fill-rule="evenodd" clip-rule="evenodd" d="M60.707 77.7851V87.7361C60.707 90.4821 58.478 92.7111 55.732 92.7111H45.781C43.035 92.7111 40.806 90.4821 40.806 87.7361V77.7851C40.806 75.0391 43.035 72.8101 45.781 72.8101H55.732C58.478 72.8101 60.707 75.0391 60.707 77.7851Z" fill="#65A3AF"/>
<path d="M35.901 72.8101H16V92.7111H35.901V72.8101Z" fill="#CA807D"/>
</g>
<path d="M97.615 22.7H100.923V88.64H129.955V92H97.615V22.7ZM184.255 61.2875H151.022V92H142.15V22.7H151.022V53.2025H184.255V22.7H193.127V92H184.255V61.2875ZM212.67 72.3125C212.705 74.9025 213.265 77.265 214.35 79.4C215.435 81.535 217.045 83.2325 219.18 84.4925C221.35 85.7525 224.01 86.3825 227.16 86.3825C229.82 86.3825 232.077 85.9975 233.932 85.2275C235.822 84.4225 237.362 83.4775 238.552 82.3925C239.742 81.2725 240.6 80.275 241.125 79.4L245.587 84.9125C244.432 86.5925 243.015 88.0625 241.335 89.3225C239.69 90.5825 237.677 91.545 235.297 92.21C232.917 92.91 230.012 93.26 226.582 93.26C221.962 93.26 217.955 92.28 214.56 90.32C211.2 88.325 208.61 85.5775 206.79 82.0775C204.97 78.5425 204.06 74.5 204.06 69.95C204.06 65.75 204.917 61.97 206.632 58.61C208.347 55.215 210.832 52.5375 214.087 50.5775C217.377 48.6175 221.332 47.6375 225.952 47.6375C230.187 47.6375 233.862 48.53 236.977 50.315C240.127 52.065 242.56 54.55 244.275 57.77C246.025 60.99 246.9 64.84 246.9 69.32C246.9 69.6 246.882 70.1075 246.847 70.8425C246.812 71.5425 246.777 72.0325 246.742 72.3125H212.67ZM238.185 65.435C238.15 64 237.73 62.425 236.925 60.71C236.155 58.995 234.895 57.525 233.145 56.3C231.395 55.075 229.032 54.4625 226.057 54.4625C222.977 54.4625 220.492 55.0575 218.602 56.2475C216.747 57.4375 215.382 58.89 214.507 60.605C213.632 62.285 213.125 63.895 212.985 65.435H238.185ZM291.636 92V83.6C291.356 84.475 290.534 85.6825 289.169 87.2225C287.839 88.7625 286.001 90.1625 283.656 91.4225C281.346 92.6475 278.616 93.26 275.466 93.26C271.476 93.26 267.854 92.315 264.599 90.425C261.379 88.535 258.806 85.8925 256.881 82.4975C254.991 79.0675 254.046 75.06 254.046 70.475C254.046 65.89 254.991 61.9 256.881 58.505C258.806 55.075 261.379 52.415 264.599 50.525C267.854 48.6 271.476 47.6375 275.466 47.6375C278.581 47.6375 281.276 48.1975 283.551 49.3175C285.861 50.4375 287.699 51.7325 289.064 53.2025C290.464 54.6725 291.286 55.9325 291.531 56.9825V48.8975H300.561V92H291.636ZM263.076 70.475C263.076 73.59 263.759 76.285 265.124 78.56C266.489 80.835 268.256 82.6025 270.426 83.8625C272.631 85.0875 274.976 85.7 277.461 85.7C280.121 85.7 282.501 85.07 284.601 83.81C286.701 82.55 288.364 80.7825 289.589 78.5075C290.814 76.1975 291.426 73.52 291.426 70.475C291.426 67.43 290.814 64.77 289.589 62.495C288.364 60.185 286.701 58.4 284.601 57.14C282.501 55.845 280.121 55.1975 277.461 55.1975C274.976 55.1975 272.631 55.8275 270.426 57.0875C268.256 58.3475 266.489 60.115 265.124 62.39C263.759 64.665 263.076 67.36 263.076 70.475ZM309.092 48.8975H317.545V31.205H326.627V48.8975H337.705V56.72H326.627V78.035C326.627 80.555 327.065 82.41 327.94 83.6C328.85 84.79 330.057 85.385 331.562 85.385C332.892 85.385 333.925 85.14 334.66 84.65C335.395 84.16 335.832 83.8275 335.972 83.6525L339.595 90.3725C339.385 90.5475 338.825 90.88 337.915 91.37C337.005 91.86 335.832 92.2975 334.397 92.6825C332.962 93.0675 331.282 93.26 329.357 93.26C325.997 93.26 323.18 92.245 320.905 90.215C318.665 88.15 317.545 84.895 317.545 80.45V56.72H309.092V48.8975ZM371.941 47.6375C374.776 47.6375 377.523 48.2325 380.183 49.4225C382.878 50.6125 385.083 52.5025 386.798 55.0925C388.548 57.6475 389.423 60.99 389.423 65.12V92H380.183V66.905C380.183 62.635 379.203 59.5375 377.243 57.6125C375.318 55.6525 372.781 54.6725 369.631 54.6725C367.531 54.6725 365.518 55.2675 363.593 56.4575C361.668 57.6125 360.076 59.2225 358.816 61.2875C357.591 63.3175 356.978 65.6275 356.978 68.2175V92H347.738V19.76H356.978V56.5625C357.293 55.3725 358.133 54.0775 359.498 52.6775C360.898 51.2775 362.683 50.0875 364.853 49.1075C367.023 48.1275 369.386 47.6375 371.941 47.6375ZM456.634 22.7V92H453.379V34.1975L453.641 29.84L452.434 34.1975L431.434 89.48H428.074L407.074 34.1975L405.919 29.84L406.181 34.1975V92H402.874V22.7H406.234L429.334 84.02L429.754 85.8575L430.174 84.02L453.379 22.7H456.634ZM490.393 89.9C493.753 89.9 496.43 89.3925 498.425 88.3775C500.42 87.3275 501.628 86.6275 502.048 86.2775L504.095 89.2175C503.885 89.3925 503.15 89.8125 501.89 90.4775C500.63 91.1425 498.968 91.7725 496.903 92.3675C494.873 92.9625 492.563 93.26 489.973 93.26C486.893 93.26 483.795 92.4375 480.68 90.7925C477.6 89.1125 475.01 86.575 472.91 83.18C470.845 79.785 469.813 75.5325 469.813 70.4225C469.813 65.2775 470.845 61.025 472.91 57.665C475.01 54.305 477.6 51.8025 480.68 50.1575C483.795 48.4775 486.893 47.6375 489.973 47.6375C492.563 47.6375 494.82 47.97 496.745 48.635C498.705 49.3 500.28 50.0175 501.47 50.7875C502.695 51.5575 503.448 52.1 503.728 52.415L501.733 55.355C501.418 55.04 500.788 54.5325 499.843 53.8325C498.933 53.1325 497.69 52.485 496.115 51.89C494.54 51.295 492.633 50.9975 490.393 50.9975C487.698 50.9975 485.02 51.75 482.36 53.255C479.7 54.725 477.495 56.9125 475.745 59.8175C474.03 62.6875 473.173 66.2225 473.173 70.4225C473.173 74.6225 474.03 78.175 475.745 81.08C477.495 83.985 479.7 86.19 482.36 87.695C485.02 89.165 487.698 89.9 490.393 89.9Z" fill="white"/>
<defs>
<clipPath id="clip0_5_350">
<rect width="70" height="72" fill="white" transform="translate(16 21.5)"/>
</clipPath>
</defs>
</svg>
